<?xml version="1.0" standalone="no"?>
<!DOCTYPE svg PUBLIC "-//W3C//DTD SVG 20010904//EN"
 "http://www.w3.org/TR/2001/REC-SVG-20010904/DTD/svg10.dtd">
<svg version="1.0" xmlns="http://www.w3.org/2000/svg"
 width="500.000000pt" height="500.000000pt" viewBox="0 0 500.000000 500.000000"
 preserveAspectRatio="xMidYMid meet">

<g transform="translate(0.000000,500.000000) scale(0.100000,-0.100000)"
fill="#000000" stroke="none">
<path d="M2302 4329 c-112 -12 -297 -53 -412 -91 -107 -35 -343 -152 -439
-217 -322 -219 -593 -579 -710 -945 -212 -662 -61 -1339 413 -1845 60 -63 222
-201 291 -247 364 -243 785 -358 1187 -324 261 22 475 78 683 180 493 241 854
680 975 1185 51 211 63 328 57 535 -8 284 -57 490 -176 735 -75 157 -147 267
-260 398 -142 165 -294 293 -466 393 -349 201 -744 284 -1143 243z m524 -168
c233 -43 463 -141 673 -287 95 -65 313 -281 367 -365 20 -29 48 -69 63 -88 50
-65 122 -204 167 -324 102 -271 133 -518 100 -787 -19 -153 -40 -240 -92 -392
-112 -322 -320 -597 -604 -797 -141 -100 -277 -170 -440 -225 -228 -77 -311
-90 -555 -90 -193 0 -221 2 -340 28 -227 49 -427 133 -622 262 -117 78 -131
89 -252 207 -166 164 -293 356 -380 577 -125 319 -151 614 -83 945 137 664
636 1172 1296 1320 64 14 148 30 188 35 115 14 386 4 514 -19z"/>
<path d="M2177 3189 c-10 -6 -47 -33 -83 -59 -60 -46 -141 -80 -188 -80 -44 0
-99 23 -134 54 -61 55 -113 86 -144 86 -67 0 -126 -61 -112 -116 10 -41 102
-126 175 -162 141 -71 302 -64 442 19 56 33 73 40 86 31 177 -126 359 -135
520 -26 44 30 57 35 70 25 109 -77 195 -106 301 -98 99 7 166 33 275 110 84
58 90 65 93 100 3 32 -2 43 -31 72 -52 52 -84 48 -177 -18 -41 -30 -90 -59
-109 -65 -84 -29 -170 -5 -246 69 -49 46 -107 72 -145 64 -15 -3 -56 -31 -91
-62 -77 -67 -112 -83 -181 -83 -67 0 -120 26 -184 90 -54 54 -102 71 -137 49z"/>
<path d="M1547 2622 c-72 -75 7 -181 187 -252 143 -57 281 -48 414 26 57 32
65 34 80 21 28 -26 143 -76 200 -88 77 -16 156 1 274 58 91 43 99 45 116 30 9
-9 49 -31 87 -49 66 -31 76 -33 181 -33 110 0 111 0 195 42 46 24 109 60 139
80 50 35 55 42 58 79 3 36 -1 45 -33 73 -57 49 -107 43 -190 -24 -65 -52 -105
-68 -170 -69 -67 -1 -117 22 -200 94 -68 59 -98 56 -212 -20 -159 -104 -230
-103 -359 10 -83 73 -112 70 -258 -29 -66 -44 -71 -46 -140 -46 -80 1 -120 17
-164 66 -38 43 -73 59 -130 59 -40 0 -53 -5 -75 -28z"/>
<path d="M2157 2115 c-15 -8 -52 -35 -80 -59 -65 -55 -92 -66 -167 -66 -68 0
-105 12 -140 45 -83 77 -162 96 -221 54 -43 -30 -40 -74 11 -138 72 -91 210
-152 344 -152 97 0 159 17 237 66 l59 36 28 -19 c51 -36 112 -63 182 -78 58
-13 81 -14 139 -4 68 11 202 67 215 89 9 14 46 15 46 1 0 -17 120 -71 191 -86
121 -25 231 4 369 96 96 64 110 79 110 115 0 62 -75 116 -137 100 -26 -6 -104
-61 -111 -78 -7 -15 -83 -47 -126 -53 -60 -9 -137 20 -195 72 -53 47 -101 74
-132 74 -23 0 -119 -56 -119 -70 0 -5 -21 -22 -46 -39 -97 -64 -193 -49 -312
49 -77 63 -99 69 -145 45z"/>
</g>
</svg>
