<?xml version="1.0" encoding="UTF-8" standalone="no"?>
<!-- Created with Inkscape (http://www.inkscape.org/) -->

<svg
   version="1.1"
   id="svg5387"
   width="1024"
   height="1024"
   viewBox="0 0 1024 1024"
   sodipodi:docname="DOH.svg"
   inkscape:version="1.2.2 (732a01da63, 2022-12-09)"
   xmlns:inkscape="http://www.inkscape.org/namespaces/inkscape"
   xmlns:sodipodi="http://sodipodi.sourceforge.net/DTD/sodipodi-0.dtd"
   xmlns="http://www.w3.org/2000/svg"
   xmlns:svg="http://www.w3.org/2000/svg">
  <defs
     id="defs5391" />
  <sodipodi:namedview
     id="namedview5389"
     pagecolor="#ffffff"
     bordercolor="#000000"
     borderopacity="0.25"
     inkscape:showpageshadow="2"
     inkscape:pageopacity="0.0"
     inkscape:pagecheckerboard="0"
     inkscape:deskcolor="#d1d1d1"
     showgrid="false"
     inkscape:zoom="0.78515625"
     inkscape:cx="468.0597"
     inkscape:cy="512.63682"
     inkscape:window-width="1920"
     inkscape:window-height="991"
     inkscape:window-x="-9"
     inkscape:window-y="-9"
     inkscape:window-maximized="1"
     inkscape:current-layer="g5393" />
  <g
     inkscape:groupmode="layer"
     inkscape:label="Image"
     id="g5393">
    <g
       id="g5938"
       transform="matrix(1.3356204,0,0,1.2532236,-201.14292,-130.3798)">
      <ellipse
         style="fill:#ffffff;stroke:#000000;stroke-width:1.86189;stroke-dashoffset:1.13386;paint-order:stroke fill markers"
         id="path5931"
         cx="534.92535"
         cy="494.80597"
         rx="374.46167"
         ry="372.55127" />
      <path
         style="fill:#000000"
         d="M 507.42537,871.05071 C 437.70431,865.74811 370.69329,841.3156 312.74792,800.07047 278.24575,775.51206 244.4117,741.07679 220.97388,706.66565 198.00107,672.93722 179.98467,635.43461 170.36839,601.32619 c -8.10557,-28.75001 -9.03317,-33.28548 -12.40567,-60.65704 -8.37167,-67.94534 3.28549,-140.76041 32.81899,-205 19.37197,-42.13678 48.5609,-82.94831 80.92053,-113.14187 21.86549,-20.40188 33.05518,-29.22763 55.22313,-43.5567 48.05585,-31.06265 102.80049,-50.98888 160,-58.23758 31.0623,-3.93642 54.49179,-4.20301 87.12708,-0.99134 62.62042,6.16252 121.10569,26.83108 172.37292,60.9162 18.14501,12.06374 27.90341,19.74788 44.73638,35.22712 44.11467,40.56694 75.40135,85.59949 96.07393,138.28417 8.6746,22.10763 11.072,29.34691 15.1234,45.6685 15.9076,64.08529 15.908,122.69637 0.001,187.97123 -8.2893,34.01549 -19.9172,63.33765 -37.22097,93.86027 -7.45353,13.14749 -24.45605,38.25228 -33.8631,50 -10.35437,12.93076 -32.88368,36.25552 -46.38795,48.02579 -36.39586,31.72248 -81.33401,57.1478 -129.46277,73.24807 -44.21445,14.7908 -100.71643,21.7038 -148,18.1077 z m 47.31261,-28.91654 c 46.97378,-3.31011 87.47259,-13.69762 132.15412,-33.89611 20.26105,-9.1591 47.88405,-26.52363 69.53327,-43.71041 14.61778,-11.6047 42.83964,-40.05171 53.92827,-54.3585 14.66368,-18.91942 28.02062,-40.12578 38.19029,-60.63347 15.75491,-31.77062 28.19546,-72.88172 32.81935,-108.45498 6.3576,-48.91089 3.6619,-92.03553 -8.58948,-137.41155 -5.0717,-18.78433 -13.80907,-42.44278 -20.88784,-56.55863 -5.05372,-10.07769 -16.47185,-30.43559 -19.87271,-35.43195 -22.87303,-33.60389 -37.8889,-51.45795 -62.96153,-74.86207 -43.7404,-40.8296 -106.37226,-72.1559 -165.12635,-82.59052 -67.77669,-12.03701 -141.93455,-4.96435 -199.60348,19.03681 -12.46968,5.18975 -45.56368,21.73169 -56.39652,28.18965 -36.97699,22.0437 -75.53268,59.38365 -102.11897,98.89896 -32.2036,47.86433 -50.00898,95.53877 -58.56806,156.81775 -2.47874,17.7466 -2.45455,62.30062 0.0437,80.5 7.63207,55.59835 26.3965,104.70517 58.45322,152.97311 11.37381,17.12559 33.81193,42.95854 51.70417,59.52689 32.54648,30.13828 86.49276,61.35952 130.34282,75.43548 28.30713,9.08665 53.99679,13.72491 93.64311,16.90724 8.98046,0.72085 19.39959,0.60271 33.31261,-0.3777 z M 399.42537,637.24341 c -19.49562,-3.18553 -43.80522,-15.17798 -54.68958,-26.97955 -7.48127,-8.11171 -10.7874,-14.76286 -10.80065,-21.72835 -0.009,-4.71665 0.31178,-5.42413 3.94889,-8.71004 4.95803,-4.47928 13.45015,-7.14481 19.94321,-6.25982 5.8298,0.79459 13.36006,4.58651 20.23035,10.18715 9.14184,7.45239 13.44095,10.27674 19.00395,12.48487 6.59696,2.61853 18.36362,3.52922 26.32685,2.03759 7.0786,-1.32593 17.54874,-6.02696 20.91044,-9.38866 5.44053,-5.44053 16.0627,-13.89983 19.9592,-15.89514 2.66401,-1.36419 6.15598,-2.16331 9.68002,-2.21524 6.357,-0.0937 7.78171,0.73177 20.77329,12.03555 14.23335,12.38422 23.84188,16.57842 38.21403,16.68071 13.74205,0.0978 27.62727,-6.03124 36.01184,-15.89594 3.05273,-3.59162 12.1605,-10.18363 16.67798,-12.07115 2.55956,-1.06945 4.71327,-1.17395 9.22378,-0.44756 8.16519,1.31497 13.36825,4.23586 22.0864,12.39888 12.2362,11.45705 28.98419,17.93901 42.06362,16.27983 9.60226,-1.21808 18.04744,-5.42265 29.92538,-14.89883 16.45593,-13.1285 20.84109,-14.5948 31.60432,-10.56776 6.89751,2.58069 12.89019,7.78418 14.46693,12.56175 1.54512,4.68178 0.69399,12.83085 -1.67062,15.99507 -1.03929,1.39075 -6.41596,5.29473 -11.94814,8.67551 -5.53219,3.38078 -12.28219,7.77964 -15,9.77525 -10.06652,7.39153 -22.04504,12.20046 -38.44149,15.43281 -10.77271,2.12371 -25.25852,1.53905 -37,-1.49333 -10.53892,-2.72181 -27.62332,-11.05228 -32.06534,-15.63528 -1.82985,-1.88792 -3.72058,-3.43258 -4.20163,-3.43258 -0.48105,0 -3.72715,2.03551 -7.21356,4.52336 -8.30546,5.92665 -19.14309,10.86355 -31.23598,14.22901 -8.62977,2.40168 -11.49341,2.71839 -24.28349,2.68567 -12.93441,-0.0331 -15.46829,-0.33502 -23.46805,-2.79638 -11.77546,-3.62306 -24.31876,-9.82163 -30.00711,-14.82871 l -4.57197,-4.02441 -8.27967,5.56619 c -16.71198,11.235 -29.69302,15.49567 -49.1732,16.13976 -6.6,0.21821 -14.25,0.0291 -17,-0.42023 z M 514.41879,528.2839 c -13.5193,-3.66758 -23.40496,-8.48054 -33.94721,-16.52761 -4.44222,-3.39083 -4.82214,-3.49842 -7.85707,-2.22498 -1.75403,0.73598 -6.67894,3.61938 -10.94426,6.40757 -12.01111,7.85153 -31.22277,13.21642 -47.36389,13.22646 -23.15148,0.0144 -50.93269,-11.61118 -71.6728,-29.99285 -10.66824,-9.45512 -12.25027,-20.88632 -4.05778,-29.32024 4.91109,-5.05581 8.51095,-6.79671 15.33362,-7.41537 8.54814,-0.77512 15.3398,1.59416 22.26624,7.76759 3.16235,2.81856 5.74973,5.7517 5.74973,6.5181 0,2.0758 9.60432,8.15184 16.5269,10.45553 7.56357,2.517 18.61578,3.90394 23.3698,2.93269 1.98182,-0.40489 5.1783,-1.07189 7.1033,-1.48223 4.08833,-0.87149 18.1075,-9.70075 24.2432,-15.26835 5.22155,-4.73809 15.8309,-9.96535 21.9197,-10.79991 5.95206,-0.81582 12.62174,2.08857 17.62474,7.6749 5.76703,6.43944 15.34184,13.63166 22.78338,17.11398 5.22265,2.44397 8.54774,3.27337 14.50588,3.61828 13.52503,0.78295 23.83576,-2.97637 39.4231,-14.37374 17.97657,-13.14438 19.34553,-13.87506 26,-13.8775 7.25234,-0.003 14.69872,3.628 19.37463,9.44655 3.72179,4.63127 14.24576,12.23569 21.89413,15.82029 5.22143,2.44716 6.79867,2.68609 17.73124,2.68609 11.76971,0 12.14833,-0.0708 19.72926,-3.69086 4.2511,-2.02998 10.92755,-6.30498 14.83656,-9.5 16.97958,-13.87823 23.34929,-15.89652 33.77414,-10.7016 8.67043,4.32065 15.04932,14.52506 13.81902,22.10648 -0.8414,5.18497 -2.9351,7.72799 -9.36893,11.37955 -3.18453,1.8074 -11.47729,7.02827 -18.42836,11.60194 -21.9687,14.45497 -29.46024,16.76879 -54.36169,16.79001 -13.24256,0.0113 -18.43667,-0.37936 -23.5,-1.76741 -8.45335,-2.31738 -20.95481,-8.55916 -28.48033,-14.21977 -3.28917,-2.47409 -6.85141,-4.49834 -7.91606,-4.49834 -1.06466,0 -5.12351,1.97366 -9.01968,4.3859 -10.29683,6.37512 -18.4236,10.25911 -28.86142,13.79361 -8.0613,2.72975 -10.85935,3.16786 -22.22251,3.47949 -10.46869,0.2871 -14.3643,-0.0136 -20.00658,-1.54425 z m 2.53485,-109.67667 c -11.90503,-2.58074 -25.38595,-8.82439 -35.73536,-16.55073 -2.8639,-2.13804 -6.03523,-3.88735 -7.04739,-3.88735 -1.01217,0 -6.31898,2.7687 -11.79291,6.15266 -5.47394,3.38396 -12.65261,7.26296 -15.95261,8.62001 -19.48646,8.01332 -48.84488,8.24639 -69.60171,0.55256 -9.21151,-3.41438 -26.69183,-14.8898 -33.54297,-22.02017 -9.12082,-9.49255 -12.4634,-19.3278 -8.9064,-26.20628 3.85787,-7.46031 14.08998,-12.7358 22.93181,-11.82324 7.25426,0.7487 11.98174,3.36171 22.34554,12.351 14.81398,12.84927 27.16191,16.90269 42.5182,13.95734 12.03857,-2.30901 20.13832,-6.57934 34.90238,-18.40114 8.73395,-6.99341 10.15694,-7.79414 16.29597,-9.16993 7.56484,-1.69531 11.83298,0.0166 19.52691,7.83201 12.88076,13.08415 23.05629,19.3086 34.87953,21.33606 14.96412,2.56606 26.49652,-1.77631 43.15074,-16.24786 12.7209,-11.05371 16.12454,-12.93302 23.42314,-12.93302 8.29778,0 15.00151,3.08689 22.57686,10.39603 11.95998,11.5397 20.04546,16.42995 30.89218,18.68417 13.79356,2.86665 32.58397,-4.31093 50.55718,-19.31187 5.47681,-4.5711 13.53065,-7.83947 17.55064,-7.12232 11.46585,2.04548 22.04847,14.05709 20.40178,23.15667 -1.19755,6.61767 -3.03258,8.76517 -12.10958,14.17162 -4.83571,2.88024 -12.3922,7.82897 -16.7922,10.99718 -13.03915,9.38879 -20.59034,12.57417 -37,15.60802 -11.86393,2.19343 -29.06757,1.48591 -39,-1.60391 -8.5696,-2.66587 -22.94542,-9.95839 -29.83288,-15.13354 -2.81232,-2.11313 -5.78538,-3.84205 -6.60681,-3.84205 -0.82143,0 -5.85683,2.94212 -11.18978,6.53805 -19.64546,13.24666 -45.27247,18.57587 -66.84226,13.90003 z"
         id="path5877" />
    </g>
  </g>
</svg>
