<svg version="1.1" id="Layer_1" xmlns="http://www.w3.org/2000/svg" xmlns:xlink="http://www.w3.org/1999/xlink" x="0px" y="0px"
	 width="100%" viewBox="0 0 496 496" enable-background="new 0 0 496 496" xml:space="preserve">
<path fill="#000000" opacity="1.000000" stroke="none" 
	d="
M188.705688,425.432678 
	C139.888809,407.239258 104.052376,375.295227 81.848335,328.392456 
	C68.081345,299.311707 62.676430,268.769196 65.604538,236.696671 
	C69.220383,197.091171 83.083672,161.666672 108.984337,131.366486 
	C139.851471,95.256218 179.358398,74.202454 226.204666,68.052750 
	C276.166016,61.494114 322.434540,72.700699 362.938141,103.000618 
	C403.410156,133.276901 427.880615,174.015198 435.070404,224.198334 
	C442.370392,275.150635 430.758484,322.020721 399.757416,363.157166 
	C370.455780,402.038513 331.163757,425.325500 282.948700,433.523193 
	C250.895706,438.973022 219.671249,436.448364 188.705688,425.432678 
M380.424591,361.913910 
	C390.384216,349.164978 400.303528,336.257080 406.432678,321.208130 
	C417.601746,293.784790 423.798065,265.394501 420.731415,235.476608 
	C418.638000,215.053391 413.325928,195.503922 404.170685,177.235764 
	C394.789978,158.517685 382.013031,142.203247 366.878418,127.574699 
	C352.748108,113.916901 336.490204,103.605972 318.711914,95.973206 
	C293.411194,85.110832 266.779327,81.102295 239.171799,83.166153 
	C203.559738,85.828392 171.577148,98.025017 143.811569,120.141953 
	C119.508095,139.501114 102.109390,164.313293 91.432297,193.653152 
	C81.462410,221.049667 77.456390,249.210114 82.613312,278.036530 
	C89.055115,314.045197 104.965683,345.345825 131.134201,371.311218 
	C146.018585,386.080048 163.303879,397.485657 182.165314,405.851257 
	C208.804672,417.666565 236.928925,422.886749 266.369568,419.903809 
	C286.655304,417.848450 305.923584,412.411377 324.342133,404.087402 
	C345.880951,394.353241 363.976501,379.748993 380.424591,361.913910 
z"/>
<path fill="#000000" opacity="1.000000" stroke="none" 
	d="
M277.649048,181.085678 
	C283.427124,180.393066 287.625702,182.620270 291.405273,186.301346 
	C296.580566,191.341797 302.005341,196.011871 309.983185,195.701324 
	C315.174927,195.499252 319.698486,193.651688 323.858154,190.707870 
	C326.984863,188.495087 329.957184,186.032578 333.226471,184.059357 
	C340.159241,179.875000 349.274048,184.907227 349.666443,193.037079 
	C349.763245,195.042435 349.718781,197.395828 347.877625,198.517593 
	C338.440674,204.267334 330.465454,212.478104 318.872223,214.595795 
	C305.994141,216.948181 294.352753,214.584518 283.864044,206.929657 
	C281.343170,205.089859 279.599426,204.623840 276.893707,206.538895 
	C259.283752,219.002792 241.549911,218.782181 224.153854,206.211105 
	C220.568604,203.620239 218.587204,205.914108 216.281967,207.427231 
	C203.939209,215.528885 190.671249,217.346039 176.639191,213.213211 
	C168.315430,210.761642 161.306900,206.043564 155.652985,199.399094 
	C151.238632,194.211365 150.687057,190.473373 153.748199,186.424683 
	C157.304962,181.720428 162.941147,180.310226 168.488525,182.667892 
	C171.635101,184.005234 174.245178,186.131790 176.446838,188.606903 
	C184.134857,197.249817 197.032516,196.228195 204.417358,191.464706 
	C207.767746,189.303574 210.938843,186.853592 214.112137,184.430984 
	C221.074921,179.115387 225.224960,179.518646 231.497025,185.654892 
	C235.406998,189.480194 239.421082,193.420502 244.916382,194.937057 
	C252.539902,197.040939 259.304169,195.458191 265.273132,190.041962 
	C268.944458,186.710587 272.414246,182.991226 277.649048,181.085678 
z"/>
<path fill="#000000" opacity="1.000000" stroke="none" 
	d="
M213.307007,263.460632 
	C192.403595,273.965332 168.880692,266.022583 156.312592,253.270416 
	C152.079071,248.974899 151.100906,244.381989 153.277344,240.661896 
	C155.757050,236.423416 161.462189,234.192154 166.796356,235.305298 
	C170.898804,236.161392 174.150238,238.419495 176.808792,241.504379 
	C183.310959,249.049271 194.453171,250.855896 203.006424,245.726578 
	C207.712540,242.904358 211.668076,238.986649 216.804840,236.762711 
	C223.025574,234.069458 225.693146,234.462341 230.831894,238.923370 
	C236.328568,243.695114 241.511932,249.146362 249.738770,248.899170 
	C254.520599,248.755508 258.931610,247.723526 262.900269,244.911102 
	C266.295776,242.504883 269.805786,240.258804 273.287170,237.975479 
	C279.674927,233.786011 283.551544,234.075119 289.518524,238.995987 
	C292.340027,241.322845 295.100464,243.794815 298.193939,245.707016 
	C306.394592,250.776123 315.791443,250.054779 323.345520,244.111420 
	C326.613708,241.540085 329.706421,238.716095 333.600098,237.047653 
	C340.610962,234.043518 349.150269,239.067673 349.943542,246.690948 
	C350.203003,249.183914 349.513641,251.582626 347.460999,252.904892 
	C336.881012,259.720245 326.899994,267.589081 313.460541,268.625549 
	C302.437378,269.475708 292.635468,266.657288 283.711823,260.700775 
	C280.802765,258.758972 278.936157,258.784332 276.208801,260.514313 
	C273.413574,262.287323 270.267517,263.505035 267.283569,264.983063 
	C253.252167,271.933411 239.532806,270.383820 227.025482,261.896973 
	C221.261353,257.985718 217.890198,261.037445 213.307007,263.460632 
z"/>
<path fill="#000000" opacity="1.000000" stroke="none" 
	d="
M240.233398,299.873077 
	C250.417221,304.217987 258.989197,302.445160 266.524139,294.803436 
	C275.787750,285.408539 281.508270,285.332062 291.230713,294.147705 
	C301.421906,303.388306 312.622070,305.103027 321.558960,298.376465 
	C325.131348,295.687622 328.230835,292.342224 332.147888,290.086639 
	C336.340271,287.672546 340.465485,288.296509 344.420929,290.765900 
	C347.979950,292.987793 349.661957,296.134491 349.373260,300.417206 
	C349.227448,302.580841 348.577484,304.375977 346.816071,305.568451 
	C336.656494,312.446411 327.018890,320.173187 314.085327,321.705078 
	C302.520447,323.074860 292.291779,319.999603 282.999725,313.597656 
	C280.654999,311.982147 279.394531,311.586639 277.038239,313.136444 
	C259.034210,324.978424 240.957581,325.492432 223.067825,312.921448 
	C221.060272,311.510712 219.871902,312.013153 218.257339,313.143005 
	C198.784790,326.769806 179.769806,323.762390 161.103500,311.408142 
	C157.399719,308.956787 155.118164,305.142456 153.265884,301.248474 
	C151.948761,298.479523 151.782089,295.312469 154.173370,292.822388 
	C157.140549,289.732635 160.907074,288.581238 165.108551,289.298859 
	C169.896042,290.116577 173.597137,292.984070 177.094009,296.128326 
	C185.713181,303.878357 197.877350,304.044617 206.682205,296.545929 
	C209.337463,294.284576 211.864090,291.793701 214.788651,289.944000 
	C220.231888,286.501312 223.480728,286.820892 228.402679,290.957245 
	C232.097748,294.062592 235.520020,297.500671 240.233398,299.873077 
z"/>
</svg>