<svg version="1.1" id="Layer_1" xmlns="http://www.w3.org/2000/svg" xmlns:xlink="http://www.w3.org/1999/xlink" x="0px" y="0px"
	 width="100%" viewBox="0 0 496 496" enable-background="new 0 0 496 496" xml:space="preserve">
<path fill="#000000" opacity="1.000000" stroke="none" 
	d="
M416.929565,350.864563 
	C393.448700,387.679993 361.986176,414.313812 321.552673,430.179596 
	C270.451843,450.231232 220.101654,447.962830 170.159668,425.790741 
	C139.587021,412.217804 114.337105,392.180450 94.835068,365.115814 
	C73.199638,335.090454 60.727158,301.566650 58.630890,264.487274 
	C56.498554,226.769943 63.179161,190.759811 81.724213,157.574188 
	C92.156494,138.906052 105.201561,122.058350 121.326088,107.793114 
	C142.428070,89.124382 166.149673,75.025551 193.192368,66.778404 
	C223.844009,57.430653 254.892868,55.203331 286.485779,61.343540 
	C338.995514,71.549011 379.928833,99.300323 410.570770,142.762360 
	C432.153137,173.374496 441.938934,207.734039 443.421021,244.885300 
	C444.930817,282.730927 435.617157,317.753937 416.929565,350.864563 
M106.330025,352.191711 
	C123.317711,376.852356 145.186493,396.177856 172.114410,409.008545 
	C201.860306,423.181915 233.438416,429.679169 266.571289,426.799072 
	C295.849060,424.254059 322.603607,414.218658 347.287384,398.648773 
	C385.042145,374.834045 409.594635,340.896820 421.327209,298.079559 
	C429.169495,269.459717 429.716156,240.299561 423.089569,211.209763 
	C416.845612,183.799789 404.801849,159.332443 386.538666,137.805557 
	C367.297821,115.126289 344.151306,97.859062 316.635101,86.845642 
	C290.960693,76.569389 264.238800,72.742035 236.467728,75.066483 
	C210.652710,77.227211 186.201508,83.732803 163.880081,96.608315 
	C133.019287,114.409554 108.989952,139.151352 93.421692,171.495575 
	C79.469872,200.481537 72.756783,230.870819 75.090874,263.290710 
	C77.419998,295.641693 87.685898,324.944214 106.330025,352.191711 
z"/>
<path fill="#000000" opacity="1.000000" stroke="none" 
	d="
M348.221008,320.183960 
	C347.151184,326.870880 344.906067,329.098633 338.721649,329.188965 
	C312.235657,329.575806 285.774048,328.692535 259.315765,327.552185 
	C250.996964,327.193634 242.656250,327.368561 234.328339,327.178253 
	C232.189072,327.129364 230.001221,326.837463 227.939880,326.275177 
	C224.405426,325.311066 221.830872,323.002777 222.185791,319.156494 
	C222.557068,315.132965 225.145218,312.438812 229.261185,311.852051 
	C231.714661,311.502319 234.249268,311.689209 236.747391,311.690369 
	C255.743393,311.699371 274.739410,311.731384 293.735413,311.730438 
	C296.511261,311.730316 299.591736,312.365448 299.686951,307.839691 
	C299.767120,304.028625 299.790436,301.238037 294.596588,300.883728 
	C283.136414,300.101959 271.691223,299.360992 260.197845,299.338196 
	C242.013351,299.302124 224.932907,287.664459 218.354446,270.643921 
	C214.193893,259.879333 208.901367,250.085800 198.882843,243.557327 
	C191.821747,238.956024 183.993469,237.168381 175.734665,236.718521 
	C173.820526,236.614258 172.783264,238.102524 171.442886,239.009033 
	C154.744217,250.302505 134.315475,243.539185 129.330078,225.046570 
	C126.187294,213.388855 131.808899,200.964172 142.624252,195.664215 
	C154.296890,189.944168 166.939072,192.589447 174.230957,202.866974 
	C176.894592,206.621216 179.771927,207.790268 184.174286,207.744659 
	C203.668060,207.542709 223.165115,207.676163 242.660919,207.646988 
	C256.757080,207.625885 256.582397,207.594559 256.773590,193.748291 
	C256.834808,189.315262 255.959610,187.147247 251.028107,186.751785 
	C244.536469,186.231186 238.048889,185.941193 231.576797,186.160904 
	C221.559540,186.500977 211.613266,185.272964 201.616898,185.275513 
	C197.328094,185.276611 193.323624,181.408356 193.090515,177.615570 
	C192.848022,173.670471 195.738495,170.289841 200.303192,169.401703 
	C205.254868,168.438278 210.306015,168.664719 215.255127,169.057373 
	C229.570007,170.193024 243.925644,168.928848 258.210114,169.884933 
	C279.539185,171.312531 300.831207,170.085052 322.138031,169.764297 
	C325.193939,169.718292 328.129791,170.085724 330.896729,171.346451 
	C333.682098,172.615570 335.430786,174.659378 335.315125,177.944870 
	C335.196869,181.303192 333.552124,183.685333 330.534668,184.925491 
	C327.898102,186.009064 325.052734,186.142517 322.188446,186.129349 
	C307.858429,186.063477 293.526215,186.202667 279.198914,185.989319 
	C274.706390,185.922409 272.719818,187.271927 273.287537,191.979599 
	C273.860901,196.734665 271.472046,202.516785 274.348328,206.073120 
	C277.121307,209.501770 283.071106,207.945190 287.593109,208.736343 
	C310.287262,212.706879 328.293915,224.622437 341.452637,242.897369 
	C348.769958,253.059723 353.772827,265.106140 351.334534,278.517731 
	C349.043152,291.121246 339.175964,299.270325 326.383148,299.373627 
	C325.383423,299.381714 324.383575,299.376678 323.383789,299.378967 
	C313.687164,299.401001 313.805389,299.394958 314.302643,309.017914 
	C314.463348,312.128143 315.819977,313.092834 318.629700,313.054443 
	C325.294098,312.963348 331.960358,312.998871 338.624329,312.889069 
	C343.576019,312.807465 346.987701,314.718018 348.221008,320.183960 
M327.397705,252.116806 
	C324.019287,246.524567 320.116913,241.423599 314.596344,237.707199 
	C303.314270,230.112228 291.544006,223.870041 277.562531,223.021194 
	C272.950531,222.741211 271.335266,224.745514 271.314209,229.126923 
	C271.271088,238.114822 272.165802,247.012833 273.020874,255.943268 
	C273.576538,261.746155 276.635162,264.180298 281.850281,264.839996 
	C293.777130,266.348724 305.748077,265.955414 317.675690,265.104462 
	C322.304657,264.774200 327.322479,265.509277 331.608582,262.581299 
	C331.288055,258.760345 329.489624,255.771606 327.397705,252.116806 
M163.531479,220.163055 
	C163.874130,218.230179 163.235825,216.482651 162.218536,214.951218 
	C160.138519,211.819885 157.207474,209.973465 153.353287,210.506516 
	C149.277130,211.070282 146.878372,213.768814 145.826614,217.604645 
	C144.859024,221.133530 146.695068,223.787827 149.179810,225.882309 
	C154.123672,230.049698 160.411179,227.766327 163.531479,220.163055 
z"/>
</svg>