<?xml version="1.0" encoding="UTF-8" standalone="no"?>
<!-- Created with Inkscape (http://www.inkscape.org/) -->

<svg
   version="1.1"
   id="svg1775"
   width="1024"
   height="1024"
   viewBox="0 0 1024 1024"
   sodipodi:docname="HELICOPTERO.svg"
   inkscape:version="1.2.2 (732a01da63, 2022-12-09)"
   xmlns:inkscape="http://www.inkscape.org/namespaces/inkscape"
   xmlns:sodipodi="http://sodipodi.sourceforge.net/DTD/sodipodi-0.dtd"
   xmlns="http://www.w3.org/2000/svg"
   xmlns:svg="http://www.w3.org/2000/svg">
  <defs
     id="defs1779" />
  <sodipodi:namedview
     id="namedview1777"
     pagecolor="#ffffff"
     bordercolor="#000000"
     borderopacity="0.25"
     inkscape:showpageshadow="2"
     inkscape:pageopacity="0.0"
     inkscape:pagecheckerboard="0"
     inkscape:deskcolor="#d1d1d1"
     showgrid="false"
     inkscape:zoom="0.75683594"
     inkscape:cx="465.75484"
     inkscape:cy="512"
     inkscape:window-width="1920"
     inkscape:window-height="991"
     inkscape:window-x="-9"
     inkscape:window-y="-9"
     inkscape:window-maximized="1"
     inkscape:current-layer="g1781" />
  <g
     inkscape:groupmode="layer"
     inkscape:label="Image"
     id="g1781">
    <g
       id="g5371"
       transform="matrix(1.2706922,0,0,1.1895444,-106.00577,-157.7252)">
      <ellipse
         style="fill:#ffffff;stroke:#000000;stroke-width:1.74389;stroke-dashoffset:1.13386;paint-order:stroke fill markers"
         id="path5364"
         cx="487.55609"
         cy="558.90576"
         rx="388.53229"
         ry="385.88974" />
      <path
         style="fill:#000000"
         d="m 476.39548,950.28044 c -48.28656,-4.13233 -70.59447,-7.8271 -102.43652,-16.96616 -17.6784,-5.07392 -31.37522,-10.35953 -53.89634,-20.79863 -8.61693,-3.99416 -17.91714,-8.11351 -20.66714,-9.15412 -2.75,-1.04061 -17.6,-10.2683 -33,-20.50598 -40.26084,-26.76477 -57.61814,-42.51968 -86.45414,-78.47286 -24.059,-29.99714 -45.21677,-64.85988 -55.80869,-91.95882 -14.99264,-38.35797 -24.213329,-74.57094 -28.772498,-113 -1.80961,-15.25317 -2.03214,-58.97392 -0.3962,-77.84413 2.270249,-26.18682 10.529368,-67.6145 18.073348,-90.65587 7.90684,-24.14963 29.64573,-70.39221 39.05006,-83.06659 3.03355,-4.08837 8.68346,-11.93341 12.55534,-17.43341 22.66877,-32.20092 51.48674,-63.02554 76.93474,-82.29185 11.27115,-8.53322 49.66429,-33.75004 61.81804,-40.60241 17.64638,-9.94916 67.18705,-28.27614 91,-33.66438 26.17667,-5.92307 68.37036,-10.94136 91.99488,-10.94136 39.5662,0 89.26994,8.2845 132.50512,22.08564 11.94173,3.81193 49.05295,22.03463 67.5,33.14448 32.15024,19.36268 54.82183,36.87993 78,60.26687 20.41434,20.59821 31.71282,34.16493 49.97103,60.00301 10.9049,15.43206 14.48399,21.56658 25.08763,43 14.80896,29.93372 22.7317,52.3903 29.81182,84.5 10.89594,49.4152 13.066,91.55792 7.50083,145.66678 -1.22194,11.88072 -3.69033,23.49233 -10.6998,50.33322 -8.24227,31.56153 -19.07345,59.06636 -34.67545,88.05526 -11.0577,20.54546 -17.4678,30.03181 -31.44738,46.53921 -4.70177,5.55195 -11.33482,13.46098 -14.74011,17.57562 -18.1609,21.94397 -43.70392,44.99205 -69.30857,62.5388 -27.68147,18.96998 -35.48512,23.56058 -56.51276,33.24433 -41.97592,19.33094 -53.71461,23.27626 -96.56676,32.45561 -26.54546,5.6863 -68.1433,9.51188 -86.42048,7.94774 z m 56.5,-33.76233 c 20.89077,-3.02858 40.99119,-7.68993 63.5,-14.72582 33.95971,-10.61527 71.85353,-29.26536 100,-49.2167 55.65775,-39.45243 96.64028,-88.39591 120.35931,-143.73937 6.93414,-16.17939 17.89611,-47.45927 21.17138,-60.41235 5.96597,-23.59428 9.60925,-53.2309 10.60626,-86.27754 0.7314,-24.24267 -0.21231,-36.53502 -5.19642,-67.68648 -6.74135,-42.13445 -13.7254,-63.19892 -35.15685,-106.03598 -13.10299,-26.19017 -23.12334,-40.69901 -48.24918,-69.86175 -16.54909,-19.20798 -23.84185,-26.32827 -41.0345,-40.06403 -32.69028,-26.11733 -35.52316,-28.03927 -62.56384,-42.44578 -21.45874,-11.43262 -30.22272,-15.32905 -48.93616,-21.75685 -42.39405,-14.56174 -97.81046,-22.40167 -137.39119,-19.43713 -60.70771,4.5469 -100.90604,14.50438 -143.60881,35.57314 -46.94968,23.16411 -86.90705,54.99905 -119.95952,95.57445 -12.39105,15.21131 -32.46782,45.37859 -40.2142,60.42569 -8.97722,17.43796 -20.14271,45.79213 -25.19929,63.99226 -1.06966,3.85 -3.51745,12.4 -5.43955,19 -9.54696,32.78193 -13.0289,87.58166 -8.19658,129 5.2116,44.66915 14.01561,75.82192 32.30951,114.32649 11.93755,25.12586 21.86127,41.53076 38.91798,64.33528 12.32567,16.47922 36.00508,42.08479 49.28165,53.2904 22.74441,19.19658 55.9546,41.58072 76.5,51.56208 34.84176,16.9268 85.11546,30.33871 133,35.48145 16.70379,1.79397 60.5156,1.27086 75.5,-0.90146 z m 25,-201.61893 c -12.375,-0.40271 -42.975,-1.27287 -68,-1.9337 -25.025,-0.66083 -47.16704,-1.62737 -49.20453,-2.14786 -13.49358,-3.44704 -15.67907,-20.24376 -3.45717,-26.57034 2.85539,-1.47808 10.26138,-1.61488 76.44302,-1.41202 l 73.28133,0.22461 -0.28133,-12.318 -0.28132,-12.318 -13,-1.22155 c -7.15,-0.67186 -28.525,-1.63623 -47.5,-2.14306 -30.09624,-0.80387 -35.52116,-1.19247 -42.5,-3.04434 -29.2795,-7.76949 -50.98177,-27.95111 -64.99211,-60.4382 -9.9985,-23.18449 -14.51258,-30.55373 -24.67019,-40.2742 -7.08021,-6.7755 -13.67324,-11.26725 -24.62052,-16.77365 -9.08461,-4.56949 -15.76102,-6.27872 -29.52985,-7.55998 -10.34306,-0.96246 -10.90766,-0.91481 -13,1.09726 -6.06101,5.82849 -18.33009,11.80874 -28.67102,13.97496 -6.9129,1.44811 -22.37713,0.59449 -27.42283,-1.51374 -8.61512,-3.59962 -23.61176,-17.75925 -28.01768,-26.45391 -14.44512,-28.50608 -0.24186,-62.25035 30.53281,-72.54019 10.45735,-3.49653 17.93961,-4.12952 26.15032,-2.21228 13.25586,3.0953 23.06315,10.19353 31.71822,22.9567 l 4.35305,6.41922 37.5849,0.74908 c 35.96374,0.71678 93.55617,0.12969 116.3349,-1.1859 l 10.75,-0.62087 -0.004,-7.10768 c -0.002,-3.90922 -0.29352,-13.4435 -0.6478,-21.18728 l -0.64414,-14.07961 -16.1022,-1.15347 c -8.85621,-0.6344 -34.57284,-1.39698 -57.14807,-1.69463 -22.57524,-0.29764 -42.66843,-0.98918 -44.65155,-1.53674 -4.64152,-1.28159 -10.47636,-7.70013 -11.38035,-12.51882 -0.93977,-5.0094 2.08931,-12.19133 6.35401,-15.06531 1.87313,-1.2623 5.64242,-2.44509 8.9764,-2.81676 3.16105,-0.35239 30.94736,-0.084 61.74736,0.59631 30.8,0.68036 88.4,1.27306 128,1.31712 l 72,0.0801 4.28923,2.26605 c 7.93336,4.19128 10.28649,11.96264 5.94376,19.62964 -1.22876,2.16936 -3.80885,4.86936 -5.73355,6 -3.40653,2.00115 -5.03955,2.06318 -61.50905,2.33617 l -58.00961,0.28044 0.01,22.42701 0.01,22.42702 5.5,0.60468 c 49.95146,5.49176 72.52284,14.41098 105.02445,41.50107 18.96483,15.80718 29.09883,28.00435 37.93463,45.65775 5.09797,10.18543 10.6325,26.77636 12.11644,36.32159 3.79906,24.43702 -7.79803,48.08382 -28.40501,57.91862 -9.11823,4.35173 -13.3804,5.02985 -31.78412,5.05693 l -16.61405,0.0245 0.43794,14.25 c 0.24087,7.8375 0.64056,14.87814 0.88821,15.64587 0.37843,1.17321 4.89048,1.28134 28.28513,0.67787 30.92836,-0.79782 32.40331,-0.58623 37.41263,5.36701 2.24406,2.66691 2.70267,4.1765 2.69957,8.88598 -0.004,6.39487 -2.18428,10.93935 -6.65317,13.86894 -2.54949,1.67132 -6.25741,1.81198 -50.29774,1.90808 -26.14994,0.0571 -57.67035,-0.22574 -70.04535,-0.62844 z m 85.71128,-129.2203 c 5.6162,-0.73933 10.48328,-1.61623 10.81572,-1.94868 2.0894,-2.0894 -6.63241,-21.06195 -15.0687,-32.77892 -15.21237,-21.12813 -36.67016,-35.32245 -70.9583,-46.93887 -14.78533,-5.0091 -15.17444,-5.08187 -27.18873,-5.08518 l -12.18872,-0.003 -0.71028,4.73645 c -0.97115,6.47613 0.29566,45.13168 1.9469,59.40766 1.55051,13.40504 3.3018,17.173 9.63656,20.73334 2.252,1.26569 6.21174,2.6809 8.79941,3.1449 7.33019,1.31438 82.97708,0.30433 94.91614,-1.26734 z m -342.949,-77.979 c 11.69693,-7.74066 10.53612,-26.58041 -2.01202,-32.65486 -6.01024,-2.90951 -14.02535,-2.85247 -18.95984,0.13491 -13.23348,8.01167 -12.64778,26.32799 1.08063,33.79389 5.28486,2.87406 14.51662,2.28281 19.89123,-1.27394 z"
         id="path5210" />
    </g>
  </g>
</svg>
