<?xml version="1.0" standalone="no"?>
<!DOCTYPE svg PUBLIC "-//W3C//DTD SVG 20010904//EN"
 "http://www.w3.org/TR/2001/REC-SVG-20010904/DTD/svg10.dtd">
<svg version="1.0" xmlns="http://www.w3.org/2000/svg"
 width="1024.000000pt" height="1024.000000pt" viewBox="0 0 1024.000000 1024.000000"
 preserveAspectRatio="xMidYMid meet">

<g transform="translate(0.000000,1024.000000) scale(0.100000,-0.100000)"
fill="#000000" stroke="none">
<path d="M4895 9053 c-401 -35 -727 -96 -995 -188 -449 -154 -594 -225 -955
-465 -375 -249 -530 -384 -788 -683 -140 -163 -220 -269 -418 -555 -83 -120
-305 -607 -367 -807 -68 -216 -151 -642 -172 -879 -16 -187 -14 -623 4 -781
32 -275 87 -538 157 -755 117 -359 177 -503 296 -713 129 -229 235 -385 394
-583 285 -355 462 -516 866 -785 155 -103 293 -191 305 -194 13 -4 101 -43
197 -87 321 -147 461 -198 739 -267 253 -64 406 -86 837 -122 240 -20 588 13
952 92 345 74 505 129 898 309 210 97 287 142 565 333 256 176 510 404 692
624 35 42 109 130 166 197 128 151 238 324 363 576 152 305 253 600 350 1025
74 322 88 883 33 1295 -23 172 -82 468 -124 620 -93 335 -290 753 -491 1040
-270 385 -553 689 -856 918 -229 174 -469 323 -724 452 -266 135 -349 166
-669 254 -153 41 -552 108 -755 125 -111 10 -407 12 -500 4z m420 -313 c428
-26 847 -118 1201 -265 113 -47 450 -223 555 -290 100 -64 427 -322 548 -431
80 -73 354 -388 450 -518 128 -174 180 -262 301 -509 210 -434 273 -651 346
-1192 44 -325 18 -847 -61 -1227 -27 -130 -114 -399 -196 -610 -154 -392 -385
-746 -701 -1073 -190 -197 -452 -410 -683 -556 -109 -68 -425 -234 -539 -281
-278 -116 -627 -214 -921 -258 -182 -27 -511 -37 -706 -21 -501 41 -1050 183
-1424 366 -137 67 -393 230 -567 361 -339 256 -628 574 -878 966 -103 163
-283 539 -344 721 -165 489 -224 1023 -173 1587 21 240 43 350 123 616 134
447 243 691 449 999 288 430 607 754 1005 1022 518 347 1023 518 1725 582 245
23 274 24 490 11z"/>
<path d="M4061 6780 c-50 -12 -84 -42 -105 -92 -24 -58 -16 -106 27 -155 55
-62 54 -62 514 -68 230 -3 491 -11 579 -17 l162 -11 7 -209 c4 -115 5 -211 2
-214 -13 -13 -864 -26 -1238 -19 l-406 7 -43 64 c-143 211 -347 286 -574 212
-170 -55 -308 -198 -351 -363 -29 -113 -15 -255 37 -365 24 -51 159 -190 231
-237 151 -99 454 -54 611 92 26 24 27 24 134 14 136 -12 203 -29 294 -75 150
-75 265 -169 343 -278 51 -73 79 -128 149 -291 139 -324 358 -528 651 -606 70
-18 124 -22 425 -30 190 -6 404 -15 475 -22 l130 -12 3 -124 3 -123 -733 3
c-718 4 -734 4 -767 -16 -76 -45 -102 -131 -59 -194 45 -67 70 -74 282 -82
562 -21 1198 -34 1651 -34 476 0 513 1 538 18 45 29 67 75 67 139 0 50 -4 62
-30 92 -50 57 -71 59 -376 51 -226 -6 -275 -5 -278 6 -3 8 -6 78 -9 157 l-3
142 166 0 c117 0 183 5 225 15 207 54 363 246 381 469 20 230 -126 587 -326
800 -72 77 -267 243 -357 304 -236 160 -466 233 -873 277 l-55 6 0 224 0 224
580 3 c528 3 583 5 612 20 45 25 76 73 80 127 6 63 -22 105 -90 137 l-52 25
-500 -7 c-291 -4 -675 -2 -920 4 -618 17 -1175 22 -1214 12z m-823 -841 c125
-61 137 -249 20 -327 -55 -36 -139 -42 -194 -14 -143 74 -152 256 -16 339 49
30 129 31 190 2z m2653 -275 c375 -121 599 -267 763 -497 82 -116 162 -301
137 -317 -35 -21 -306 -35 -676 -35 l-390 0 -57 28 c-81 40 -98 71 -114 216
-17 148 -29 508 -20 584 l7 57 120 0 c110 0 128 -3 230 -36z"/>
</g>
</svg>
